# xmcd CD database file
#
# Track frame offsets:
#	150
#	16766
#	37910
#	57842
#	73874
#	91845
#	112993
#	138024
#	161487
#	181182
#	200711
#	218303
#
# Disc length: 3171 seconds
#
# Revision: 0
# Processed by: cddbd v1.5.2PL0 Copyright (c) Steve Scherf et al.
# Submitted via: CDex 1.51
#
DISCID=910c610c
DTITLE=The Handsome Family - Wilderness
DYEAR=2013
DGENRE=Country
TTITLE0=Flies
TTITLE1=Frogs
TTITLE2=Eels
TTITLE3=Octopus
TTITLE4=Owls
TTITLE5=Caterpillars
TTITLE6=Glow Worm
TTITLE7=Lizard
TTITLE8=Woodpecker
TTITLE9=Gulls
TTITLE10=Spider
TTITLE11=Wildebeest
EXTD=YEAR: 2013
EXTT0=
EXTT1=
EXTT2=
EXTT3=
EXTT4=
EXTT5=
EXTT6=
EXTT7=
EXTT8=
EXTT9=
EXTT10=
EXTT11=
PLAYORDER=
